<svg viewBox="0 0 50 50" fill="none" xmlns="http://www.w3.org/2000/svg">
<path d="M15.525 25L12.2 27.225V22.775L15.525 25ZM23.675 19.55V13.35L13.275 20.3L17.9 23.4L23.675 19.55ZM36.75 20.3L26.325 13.35V19.55L32.1 23.4L36.75 20.3ZM13.275 29.7L23.675 36.65V30.45L17.9 26.6L13.275 29.7ZM26.325 30.45V36.65L36.75 29.7L32.1 26.6L26.325 30.45ZM25 21.85L20.3 25L25 28.15L29.7 25L25 21.85ZM50 25C50 38.75 38.75 50 25 50C11.25 50 0 38.75 0 25C0 11.25 11.25 0 25 0C38.75 0 50 11.25 50 25ZM40.45 20.3V20.125L40.425 20L40.4 19.875C40.375 19.85 40.375 19.825 40.35 19.775L40.325 19.725L40.275 19.625L40.25 19.575L40.2 19.5L40.15 19.425L40.075 19.35L40 19.3V19.25L39.9 19.2L39.875 19.175L25.75 9.775C25.5321 9.62819 25.2753 9.54976 25.0125 9.54976C24.7497 9.54976 24.4929 9.62819 24.275 9.775L10.125 19.175V19.2L10 19.25V19.3L9.925 19.35L9.85 19.425L9.825 19.5L9.75 19.575L9.725 19.625L9.675 19.725L9.65 19.775L9.6 19.875V20H9.575L9.55 20.125V29.875L9.575 30H9.6V30.125C9.625 30.15 9.625 30.175 9.65 30.225L9.675 30.275L9.725 30.375L9.75 30.425L9.8 30.5L9.85 30.575L9.925 30.65L10 30.7V30.75L10.1 30.8L10.125 30.825L24.275 40.25C24.475 40.4 24.75 40.45 25 40.45C25.25 40.45 25.525 40.375 25.75 40.25L39.875 30.825L39.9 30.8L40 30.75V30.7L40.075 30.65L40.15 30.575L40.2 30.5L40.25 30.425L40.275 30.375L40.325 30.275L40.35 30.225L40.4 30.125V30H40.425L40.45 29.875V20.3ZM37.8 27.225V22.775L34.475 25L37.8 27.225Z" fill="#C2CAD0"/>
</svg>
