<svg viewBox="0 0 1251 729" fill="none" xmlns="http://www.w3.org/2000/svg">
<path d="M707.695 277.858C590.825 277.858 506.914 369.595 506.914 583.648C506.914 826.24 590.825 890.456 707.695 890.456C824.565 890.456 913.476 820.125 913.476 583.648C913.476 330.862 824.565 277.858 707.695 277.858ZM708.464 809.932C627.517 809.932 585.227 751.83 585.227 583.804C585.227 435.547 629.248 357.364 710.195 357.364C791.142 357.364 835.163 408.719 835.163 583.804C835.163 747.594 789.411 809.932 708.464 809.932Z" fill="#F480A2"/>
<path d="M648.703 266.731C645.464 274.496 644.878 283.517 647.073 291.811C649.305 300.042 653.484 307.278 659.079 312.602C672.806 326.065 691.699 327.917 709.291 327.73C724.709 327.566 740.105 326.275 755.396 323.864C760.521 323.308 765.556 321.878 770.357 319.614C776.098 316.575 781.144 311 783.188 303.766C785.232 296.532 783.781 287.674 778.927 282.846C774.661 278.604 768.779 278.02 763.291 277.617L731.896 275.309C734.998 271.468 739.128 269.296 742.905 266.504C747.916 262.8 751.246 256.581 754.889 250.973C760.504 242.764 766.612 235.08 773.164 227.986C774.186 235.157 777.894 241.046 782.257 245.994C786.621 250.942 791.652 254.926 796.188 259.637C807.173 271.047 815.084 286.534 826.637 297.071C834.585 294.516 842.015 289.978 848.461 283.741L843.97 273.79C843.596 272.766 843.014 271.876 842.278 271.206C841.007 270.25 839.368 270.743 837.892 270.472C833.948 269.748 832.225 264.176 830.677 259.679C826.428 247.331 818.292 237.751 811.343 227.396C806.215 219.752 801.665 211.554 797.751 202.901C795.416 197.741 793.28 192.368 790.112 187.922C786.944 183.477 782.505 179.981 777.685 179.969C773.426 179.958 769.497 182.603 765.835 185.265C754.681 193.37 743.949 202.316 733.702 212.049C728.339 217.143 723.009 222.524 716.718 225.648C714.07 226.963 711.278 227.862 708.737 229.462C704.286 232.264 700.908 237.006 697.272 241.215C684.302 256.227 666.545 265.953 648.703 266.731Z" fill="#C2CAD0"/>
<path d="M436.932 721.253H388.611V547.162C388.611 537.915 385.608 529.047 380.264 522.509C374.92 515.97 367.672 512.297 360.114 512.297H348.792C345.049 512.297 341.344 513.199 337.887 514.951C334.429 516.703 331.288 519.271 328.642 522.509C325.995 525.746 323.896 529.59 322.464 533.82C321.032 538.049 320.295 542.583 320.295 547.162V721.253H183.998C181.194 721.253 178.438 720.366 175.997 718.679C173.555 716.992 171.512 714.561 170.065 711.623C168.618 708.685 167.816 705.339 167.737 701.909C167.658 698.48 168.305 695.084 169.614 692.051L313.869 358.008C315.668 353.843 316.758 349.276 317.074 344.581C317.39 339.887 316.925 335.163 315.707 330.695C314.49 326.226 312.545 322.106 309.99 318.582C307.435 315.059 304.323 312.205 300.842 310.194L292.326 305.274C285.714 301.454 278.154 300.89 271.211 303.699C264.268 306.507 258.474 312.474 255.026 320.364L79.0885 723.04C76.0926 729.897 74.5251 737.552 74.5251 745.327V745.327C74.5251 751.536 75.5246 757.683 77.4665 763.419C79.4084 769.155 82.2547 774.367 85.8428 778.757C89.431 783.147 93.6907 786.629 98.3788 789.005C103.067 791.381 108.092 792.604 113.166 792.604H320.295V902.688C320.295 908.176 321.179 913.61 322.895 918.681C324.612 923.751 327.128 928.358 330.3 932.239C333.472 936.119 337.237 939.198 341.381 941.298C345.525 943.398 349.967 944.479 354.453 944.479H354.453C358.939 944.479 363.38 943.398 367.525 941.298C371.669 939.198 375.434 936.119 378.606 932.239C381.778 928.358 384.294 923.751 386.011 918.681C387.727 913.61 388.611 908.176 388.611 902.688V792.604H436.932C444.665 792.604 452.082 788.845 457.55 782.155C463.019 775.464 466.091 766.39 466.091 756.928V756.928C466.091 747.467 463.019 738.392 457.55 731.702C452.082 725.011 444.665 721.253 436.932 721.253V721.253Z" fill="#C2CAD0"/>
<path d="M1331.7 721.253H1283.38V547.162C1283.38 537.915 1280.38 529.047 1275.03 522.509C1269.69 515.97 1262.44 512.297 1254.88 512.297H1243.56C1239.82 512.297 1236.11 513.199 1232.66 514.951C1229.2 516.703 1226.06 519.271 1223.41 522.509C1220.76 525.746 1218.67 529.59 1217.23 533.82C1215.8 538.049 1215.06 542.583 1215.06 547.162V721.253H1078.77C1075.96 721.253 1073.21 720.366 1070.77 718.679C1068.32 716.992 1066.28 714.561 1064.83 711.623C1063.39 708.685 1062.58 705.339 1062.51 701.909C1062.43 698.48 1063.07 695.084 1064.38 692.051L1208.64 358.008C1210.44 353.843 1211.53 349.276 1211.84 344.581C1212.16 339.887 1211.69 335.163 1210.48 330.695C1209.26 326.226 1207.31 322.106 1204.76 318.582C1202.2 315.059 1199.09 312.205 1195.61 310.194L1187.1 305.274C1180.48 301.454 1172.92 300.89 1165.98 303.699C1159.04 306.507 1153.24 312.474 1149.8 320.364L973.858 723.04C970.862 729.897 969.294 737.552 969.294 745.327V745.327C969.294 757.866 973.366 769.891 980.612 778.757C987.859 787.623 997.687 792.604 1007.94 792.604H1215.06V902.688C1215.06 913.771 1218.66 924.401 1225.07 932.239C1231.47 940.076 1240.16 944.479 1249.22 944.479V944.479C1258.28 944.479 1266.97 940.076 1273.38 932.239C1279.78 924.401 1283.38 913.771 1283.38 902.688V792.604H1331.7C1339.43 792.604 1346.85 788.845 1352.32 782.155C1357.79 775.464 1360.86 766.39 1360.86 756.928V756.928C1360.86 747.467 1357.79 738.392 1352.32 731.702C1346.85 725.011 1339.43 721.253 1331.7 721.253Z" fill="#C2CAD0"/>
<path d="M450.261 700.867H401.94V526.776C401.94 522.197 401.203 517.663 399.771 513.433C398.339 509.203 396.24 505.36 393.594 502.123C390.948 498.885 387.806 496.317 384.349 494.565C380.892 492.813 377.186 491.911 373.444 491.911H362.121C354.564 491.911 347.315 495.584 341.971 502.123C336.627 508.661 333.625 517.529 333.625 526.776V700.867H197.328C194.524 700.867 191.768 699.98 189.326 698.293C186.885 696.606 184.842 694.175 183.394 691.237C181.947 688.298 181.145 684.952 181.066 681.523C180.987 678.094 181.634 674.698 182.944 671.665L327.199 337.622C328.998 333.457 330.088 328.89 330.404 324.195C330.719 319.501 330.255 314.777 329.037 310.309C327.82 305.84 325.875 301.72 323.32 298.196C320.765 294.673 317.653 291.819 314.171 289.808L305.656 284.888C299.043 281.068 291.484 280.504 284.541 283.313C277.598 286.121 271.803 292.088 268.356 299.978L92.4181 702.654C89.4222 709.511 87.8547 717.166 87.8547 724.942V724.942C87.8547 737.48 91.9258 749.505 99.1724 758.371C106.419 767.237 116.247 772.218 126.496 772.218H333.625V882.302C333.625 887.79 334.508 893.224 336.225 898.295C337.941 903.365 340.457 907.972 343.629 911.853C346.801 915.733 350.567 918.812 354.711 920.912C358.855 923.012 363.297 924.093 367.783 924.093H367.783C376.842 924.093 385.53 919.69 391.936 911.853C398.342 904.015 401.94 893.385 401.94 882.302V772.218H450.261C454.091 772.218 457.882 771.295 461.42 769.502C464.958 767.709 468.172 765.081 470.88 761.769C473.588 758.456 475.735 754.523 477.201 750.195C478.666 745.866 479.42 741.227 479.42 736.542V736.542C479.42 731.857 478.666 727.218 477.201 722.89C475.735 718.562 473.588 714.629 470.88 711.316C468.172 708.003 464.958 705.375 461.42 703.583C457.882 701.79 454.091 700.867 450.261 700.867V700.867Z" stroke="#F480A2" stroke-miterlimit="10"/>
<path d="M1356.69 700.867H1308.37V526.776C1308.37 517.529 1305.37 508.661 1300.03 502.123C1294.68 495.584 1287.43 491.911 1279.88 491.911H1268.55C1264.81 491.911 1261.11 492.813 1257.65 494.565C1254.19 496.317 1251.05 498.885 1248.4 502.123C1245.76 505.36 1243.66 509.203 1242.23 513.433C1240.79 517.663 1240.06 522.197 1240.06 526.776V700.867H1103.76C1100.96 700.867 1098.2 699.98 1095.76 698.293C1093.32 696.606 1091.27 694.175 1089.83 691.237C1088.38 688.298 1087.58 684.952 1087.5 681.523C1087.42 678.094 1088.07 674.698 1089.38 671.665L1233.63 337.622C1235.43 333.457 1236.52 328.89 1236.84 324.195C1237.15 319.501 1236.69 314.777 1235.47 310.309C1234.25 305.84 1232.31 301.72 1229.75 298.196C1227.2 294.673 1224.09 291.819 1220.6 289.808L1212.09 284.888C1205.48 281.068 1197.92 280.504 1190.97 283.313C1184.03 286.121 1178.24 292.088 1174.79 299.978L998.851 702.654C995.855 709.511 994.288 717.166 994.288 724.942C994.288 737.48 998.359 749.505 1005.61 758.371C1012.85 767.237 1022.68 772.218 1032.93 772.218H1240.06V882.302C1240.06 893.385 1243.66 904.015 1250.06 911.853C1256.47 919.69 1265.16 924.093 1274.22 924.093V924.093C1283.27 924.093 1291.96 919.69 1298.37 911.853C1304.77 904.015 1308.37 893.385 1308.37 882.302V772.218H1356.69C1360.52 772.218 1364.32 771.295 1367.85 769.502C1371.39 767.709 1374.61 765.081 1377.31 761.769C1380.02 758.456 1382.17 754.523 1383.63 750.195C1385.1 745.866 1385.85 741.227 1385.85 736.542V736.542C1385.85 727.081 1382.78 718.006 1377.31 711.316C1371.84 704.626 1364.43 700.867 1356.69 700.867V700.867Z" stroke="#F480A2" stroke-miterlimit="10"/>
<path d="M734.355 259.511C617.484 259.511 533.573 351.248 533.573 565.3C533.573 807.893 617.484 872.109 734.355 872.109C851.225 872.109 940.135 801.777 940.135 565.3C940.135 312.514 851.225 259.511 734.355 259.511ZM735.123 791.584C654.176 791.584 611.886 733.482 611.886 565.457C611.886 417.199 655.907 339.016 736.854 339.016C817.801 339.016 861.822 390.372 861.822 565.457C861.822 729.246 816.07 791.584 735.123 791.584V791.584Z" stroke="#C2CAD0" stroke-miterlimit="10"/>
<path d="M640.675 51.8277C650.364 51.8277 658.219 42.2179 658.219 30.3637C658.219 18.5094 650.364 8.89966 640.675 8.89966C630.986 8.89966 623.132 18.5094 623.132 30.3637C623.132 42.2179 630.986 51.8277 640.675 51.8277Z" fill="#F480A2"/>
<path d="M683.465 156.007C710.642 156.007 732.673 121.083 732.673 78.0034C732.673 34.9233 710.642 0 683.465 0C656.289 0 634.258 34.9233 634.258 78.0034C634.258 121.083 656.289 156.007 683.465 156.007Z" fill="#F480A2"/>
<path opacity="0.1" d="M683.466 132.449C658.815 132.449 638.399 103.715 634.816 66.2244C634.444 70.1341 634.257 74.0671 634.258 78.0034C634.258 121.083 656.289 156.007 683.466 156.007C710.642 156.007 732.673 121.083 732.673 78.0034C732.674 74.0671 732.487 70.1341 732.115 66.2244C728.532 103.715 708.116 132.449 683.466 132.449Z" fill="#121212"/>
<path d="M714.35 159.881C714.204 164.469 713.406 168.992 711.992 173.246C711.276 175.368 710.209 177.286 708.86 178.881C707.511 180.476 705.907 181.714 704.149 182.517C701.653 183.336 699.037 183.439 696.503 182.821C694.293 182.539 692.164 181.651 690.273 180.224C687.329 177.748 685.861 173.33 685.326 169.005C684.792 164.686 685.031 160.273 684.689 155.923C684.355 152.409 683.809 148.93 683.054 145.516C682.823 144.379 682.588 143.249 682.357 142.118C682.13 140.987 681.908 139.856 681.702 138.726C681.514 137.663 681.338 136.595 681.189 135.522C681.065 134.616 680.953 133.705 680.872 132.789C680.797 130.073 680.427 127.381 679.772 124.784C679.158 123.1 678.388 121.507 677.479 120.036C677.089 119.356 676.713 118.675 676.366 117.968C675.364 116.132 674.898 113.934 675.044 111.733C675.085 111.393 675.153 111.058 675.245 110.733C675.28 110.608 675.318 110.482 675.361 110.362C675.746 110.234 676.099 109.993 676.391 109.66C676.682 109.327 676.903 108.912 677.034 108.451C677.181 107.46 677.112 106.44 676.833 105.493C676.513 104.17 676.075 102.893 675.528 101.687C675.168 100.891 673.949 99.4568 673.94 98.5459C673.923 96.7136 676.85 95.2372 678.035 94.5148C681.653 92.2983 685.687 91.2974 689.725 91.6145C692.314 91.8292 695.121 92.8029 696.55 95.4571C697.834 97.8495 697.662 100.949 698.21 103.729C698.268 104.133 698.408 104.513 698.617 104.833C698.896 105.145 699.247 105.342 699.622 105.399C700.256 105.553 700.906 105.585 701.548 105.493H701.552C701.722 105.476 701.89 105.447 702.057 105.404C703.057 105.178 704.001 104.679 704.821 103.943C705.352 103.771 705.887 103.629 706.426 103.519C706.447 103.516 706.469 103.511 706.49 103.503C708.634 111.78 708.912 120.654 710.666 129.082C711.535 133.276 712.78 137.417 712.955 141.73C712.968 141.919 712.972 142.113 712.977 142.306C713.002 143.694 712.913 145.091 712.96 146.473C712.976 147.096 713.033 147.715 713.131 148.327C713.323 149.31 713.561 150.278 713.845 151.227L713.858 151.274C713.939 151.578 714.016 151.887 714.081 152.195C714.128 152.421 714.171 152.64 714.205 152.866L714.209 152.881C714.526 155.195 714.573 157.551 714.35 159.881V159.881Z" fill="#CE9B9B"/>
<path d="M684.321 105.75C698.264 105.75 709.566 91.9209 709.566 74.8623C709.566 57.8038 698.264 43.9751 684.321 43.9751C670.378 43.9751 659.075 57.8038 659.075 74.8623C659.075 91.9209 670.378 105.75 684.321 105.75Z" fill="#CE9B9B"/>
<path d="M844.6 243.151C843.868 234.724 841.42 226.656 837.48 219.687C838.135 224.451 838.791 229.213 839.448 233.973C838.631 234.263 837.762 234.254 836.949 233.948C836.136 233.642 835.413 233.052 834.87 232.251C833.807 230.627 832.993 228.781 832.469 226.801C829.601 218.09 825.851 209.854 821.306 202.285C805.234 200.647 789.346 192.496 775.213 182.994C761.076 173.497 747.845 162.111 733.896 152.211C731.478 150.423 728.958 148.848 726.357 147.5C721.992 145.358 717.093 144.249 712.955 141.73C712.677 141.563 712.399 141.385 712.125 141.202C711.19 140.58 710.305 139.852 709.481 139.029C709.035 138.587 708.612 138.111 708.214 137.605C706.15 134.667 704.513 131.316 703.375 127.7C701.154 121.69 700.362 114.44 698.146 108.43C699.165 107.265 700.309 106.277 701.548 105.493H701.552C701.732 105.378 701.911 105.268 702.095 105.163C702.972 104.658 703.885 104.25 704.821 103.943C705.352 103.771 705.886 103.629 706.426 103.519C706.447 103.517 706.469 103.511 706.49 103.504C708.99 103.005 711.552 103.253 713.957 104.226C717.474 105.681 720.439 108.587 723.396 111.335C728.199 115.476 732.807 119.947 737.195 124.727C739.634 127.585 741.859 130.726 744.482 133.323C746.662 135.381 748.96 137.244 751.358 138.898C765.552 149.243 779.746 159.586 793.942 169.927C798.747 173.429 803.557 176.931 808.255 180.638C815.392 186.271 822.273 192.375 829.149 198.474C833.201 202.065 837.252 205.658 841.301 209.253C842.63 210.29 843.796 211.609 844.745 213.148C845.584 214.895 846.105 216.844 846.273 218.86C847.29 227.005 846.716 235.328 844.6 243.151V243.151Z" fill="#CE9B9B"/>
<path d="M720.61 183.109C718.907 192.454 711.188 198.102 707.153 206.311C702.138 216.499 704.183 228.34 706.066 240.01C702.626 243.638 699.184 247.265 695.741 250.893C693.841 252.888 691.941 254.893 689.896 256.657C686.914 259.102 683.797 261.292 680.568 263.212C677.521 265.128 674.475 267.045 671.428 268.965C668.596 270.913 665.595 272.469 662.481 273.603C656.478 275.488 650.102 274.169 644.163 271.986C643.463 271.761 642.789 271.425 642.16 270.986C641.79 270.715 641.467 270.358 641.211 269.934C640.625 268.649 640.412 267.16 640.607 265.709C641.211 253.48 643.654 241.507 646.089 229.623C647.39 222.494 649.139 215.498 651.322 208.698C653.462 202.872 655.922 197.229 658.686 191.81C661.735 184.991 665.349 178.572 669.468 172.654C671.474 170.377 673.162 167.714 674.466 164.77C675.985 160.53 675.399 155.666 675.707 151.049C675.943 147.58 676.695 144.193 677.928 141.055V141.05C678.587 139.36 679.381 137.754 680.298 136.255C680.713 137.438 681.128 138.619 681.544 139.799C681.817 140.574 682.088 141.347 682.356 142.118C682.707 143.113 683.055 144.104 683.401 145.092C684.397 147.929 685.393 150.765 686.387 153.599C687.462 157.168 688.993 160.506 690.923 163.488C691.805 165.015 692.996 166.235 694.379 167.031C695.763 167.826 697.291 168.169 698.815 168.027C700.339 167.884 701.806 167.26 703.074 166.215C704.342 165.171 705.367 163.743 706.049 162.069C707.487 158.945 708.529 155.572 709.138 152.065C709.983 147.795 710.1 143.357 709.481 139.029C708.449 130.695 705.552 122.183 703.447 114.44C702.59 111.858 702.094 109.119 701.98 106.336C701.984 106.023 702.01 105.711 702.057 105.404C702.069 105.326 702.082 105.242 702.095 105.163C702.972 104.658 703.884 104.25 704.821 103.943C705.351 103.771 705.886 103.629 706.425 103.519C708.278 115.791 710.134 128.062 711.992 140.333C712.035 140.621 712.082 140.909 712.125 141.202C712.39 142.961 712.66 144.72 712.959 146.474C713.229 148.065 713.52 149.651 713.845 151.227L713.858 151.274C713.969 151.808 714.085 152.337 714.204 152.866L714.209 152.881C714.538 154.326 714.906 155.761 715.321 157.174C717.837 165.692 722.223 174.267 720.61 183.109Z" fill="#121212"/>
<path d="M823.066 314.432C822.987 316.232 823.272 318.028 823.896 319.661C825.476 323.194 829.267 323.997 832.547 324.328C851.711 326.255 870.99 325.536 890.022 322.185C891.055 322.099 892.056 321.718 892.948 321.074C895.653 318.753 893.986 313.097 891.031 311.286C888.076 309.475 884.57 309.911 881.328 309.127C878.107 308.135 875.04 306.508 872.247 304.309C865.672 299.687 859.194 294.869 852.811 289.854C849.011 286.868 844.526 283.682 840.246 285.452C828.653 290.25 822.99 299.131 823.066 314.432Z" fill="#121212"/>
<path d="M681.801 138.071V138.076C681.771 138.296 681.741 138.511 681.702 138.726C681.655 139.082 681.599 139.443 681.544 139.799C681.013 143.123 680.363 146.432 679.614 149.719C677.56 158.802 674.809 167.739 672.079 176.544C664.753 200.154 657.426 223.767 650.098 247.38C648.25 253.328 646.405 259.28 644.304 265.107C643.603 267.049 642.88 269.007 642.161 270.986C639.585 278.069 637.112 285.382 636.29 292.921C635.524 297.882 635.436 302.965 636.029 307.961C636.851 312.903 639.302 317.73 643.141 319.557C645.015 320.452 647.698 321.651 647.184 324.033C646.906 325.342 645.691 325.981 644.6 326.2C643.159 326.481 641.685 326.371 640.283 325.877C638.881 325.383 637.585 324.518 636.487 323.342C634.437 321.117 632.863 317.657 630.137 317.285C628.25 317.034 626.513 318.416 624.784 319.384C617.732 323.327 609.517 320.568 602.11 317.767C602.692 314.097 605.704 311.678 608.695 310.945C611.686 310.207 614.78 310.731 617.831 310.631C618.808 310.695 619.777 310.39 620.608 309.757C621.352 308.921 621.874 307.83 622.105 306.626C624.071 299.502 625.532 292.184 626.474 284.754C627.458 276.99 627.869 269.106 629.273 261.437C630.364 255.453 632.05 249.658 633.496 243.784C636.293 231.69 638.589 219.431 640.376 207.054C641.28 201.912 641.927 196.708 642.315 191.469C642.559 187.124 642.443 182.758 642.785 178.429C643.36 172.796 644.32 167.233 645.657 161.797C646.966 155.865 648.274 149.937 649.58 144.013C651.519 135.244 653.598 126.135 658.51 119.319C660.217 116.919 662.307 114.974 664.653 113.603C666.999 112.233 669.549 111.466 672.147 111.351C673.121 111.35 674.093 111.478 675.044 111.733C675.202 111.78 675.361 111.827 675.519 111.88C676.556 112.211 677.551 112.715 678.476 113.377C679.991 112.199 680.761 112.613 681.766 114.429C682.648 116.352 683.063 118.542 682.964 120.743C683.049 126.552 682.659 132.357 681.801 138.071Z" fill="#CE9B9B"/>
<path d="M683.465 145.013L683.4 145.091L683.054 145.516L679.614 149.719L677.928 141.055L672.147 111.351C673.121 111.35 674.092 111.478 675.044 111.733C675.085 111.393 675.152 111.058 675.245 110.733L675.519 111.88L677.478 120.036L681.188 135.522L681.8 138.071V138.076L683.465 145.013Z" fill="#121212"/>
<path d="M705.296 50.2491C705.293 52.9996 704.847 55.7224 703.984 58.2619C703.12 60.8015 701.856 63.1079 700.264 65.0494C699.687 65.756 699.069 66.4101 698.414 67.0065C695.461 69.7298 691.865 71.2039 688.167 71.206H667.639C663.103 71.1974 658.755 68.9868 655.55 65.0594C652.345 61.1321 650.544 55.8091 650.544 50.2594C650.544 44.7096 652.345 39.3866 655.55 35.4593C658.755 31.532 663.103 29.3213 667.639 29.3127H688.167C692.703 29.3272 697.051 31.537 700.26 35.4596C703.469 39.3822 705.28 44.6991 705.296 50.2491V50.2491Z" fill="#F480A2"/>
<path d="M724.543 51.8277C734.232 51.8277 742.086 42.2179 742.086 30.3637C742.086 18.5094 734.232 8.89966 724.543 8.89966C714.854 8.89966 706.999 18.5094 706.999 30.3637C706.999 42.2179 714.854 51.8277 724.543 51.8277Z" fill="#F480A2"/>
<path opacity="0.1" d="M724.114 8.89966C723.899 8.89966 723.686 8.91011 723.473 8.91951C728.011 9.12137 732.308 11.469 735.461 15.4685C738.613 19.468 740.374 24.8076 740.374 30.3637C740.374 35.9198 738.613 41.2593 735.461 45.2588C732.308 49.2583 728.011 51.606 723.473 51.8078C723.686 51.8172 723.899 51.8277 724.114 51.8277C728.767 51.8277 733.23 49.5663 736.52 45.541C739.81 41.5157 741.658 36.0563 741.658 30.3637C741.658 24.6711 739.81 19.2116 736.52 15.1863C733.23 11.161 728.767 8.89966 724.114 8.89966V8.89966Z" fill="#121212"/>
<path opacity="0.1" d="M640.676 8.89966C640.891 8.89966 641.104 8.91011 641.318 8.91951C636.78 9.12137 632.482 11.469 629.33 15.4685C626.178 19.468 624.416 24.8076 624.416 30.3637C624.416 35.9198 626.178 41.2593 629.33 45.2588C632.482 49.2583 636.78 51.606 641.318 51.8078C641.104 51.8172 640.891 51.8277 640.676 51.8277C636.026 51.8227 631.568 49.5591 628.281 45.5343C624.994 41.5096 623.148 36.053 623.148 30.3637C623.148 24.6743 624.994 19.2177 628.281 15.193C631.568 11.1683 636.026 8.90467 640.676 8.89966Z" fill="#F480A2"/>
<path opacity="0.1" d="M698.414 67.0065C695.461 69.7298 691.864 71.2039 688.167 71.206H667.639C663.941 71.2039 660.344 69.7298 657.391 67.0065H698.414Z" fill="#121212"/>
<path d="M830.979 222.533C830.979 222.533 835.401 238.125 839.449 233.973L836.223 213.593L830.979 222.533Z" fill="#CE9B9B"/>
</svg>
